<svg width="72" height="72" viewBox="0 0 72 72" fill="none" xmlns="http://www.w3.org/2000/svg">
<circle cx="36" cy="36" r="36" fill="#404040"/>
<path d="M26.3333 22.5C25.5819 22.5 24.8612 22.7985 24.3299 23.3299C23.7985 23.8612 23.5 24.5819 23.5 25.3333C23.5 26.0848 23.7985 26.8054 24.3299 27.3368C24.8612 27.8682 25.5819 28.1667 26.3333 28.1667C27.0848 28.1667 27.8054 27.8682 28.3368 27.3368C28.8682 26.8054 29.1667 26.0848 29.1667 25.3333C29.1667 24.5819 28.8682 23.8612 28.3368 23.3299C27.8054 22.7985 27.0848 22.5 26.3333 22.5ZM23.6667 30.5C23.6225 30.5 23.5801 30.5176 23.5488 30.5488C23.5176 30.5801 23.5 30.6225 23.5 30.6667V48C23.5 48.092 23.5747 48.1667 23.6667 48.1667H29C29.0442 48.1667 29.0866 48.1491 29.1179 48.1178C29.1491 48.0866 29.1667 48.0442 29.1667 48V30.6667C29.1667 30.6225 29.1491 30.5801 29.1179 30.5488C29.0866 30.5176 29.0442 30.5 29 30.5H23.6667ZM32.3333 30.5C32.2891 30.5 32.2467 30.5176 32.2155 30.5488C32.1842 30.5801 32.1667 30.6225 32.1667 30.6667V48C32.1667 48.092 32.2413 48.1667 32.3333 48.1667H37.6667C37.7109 48.1667 37.7533 48.1491 37.7845 48.1178C37.8158 48.0866 37.8333 48.0442 37.8333 48V38.6667C37.8333 38.0036 38.0967 37.3677 38.5656 36.8989C39.0344 36.4301 39.6703 36.1667 40.3333 36.1667C40.9964 36.1667 41.6323 36.4301 42.1011 36.8989C42.5699 37.3677 42.8333 38.0036 42.8333 38.6667V48C42.8333 48.092 42.908 48.1667 43 48.1667H48.3333C48.3775 48.1667 48.4199 48.1491 48.4512 48.1178C48.4824 48.0866 48.5 48.0442 48.5 48V36.5067C48.5 33.2707 45.6867 30.74 42.4667 31.032C41.4704 31.1227 40.4945 31.3693 39.5747 31.7627L37.8333 32.5093V30.6667C37.8333 30.6225 37.8158 30.5801 37.7845 30.5488C37.7533 30.5176 37.7109 30.5 37.6667 30.5H32.3333Z" fill="#16FF73"/>
</svg>
