<svg width="72" height="72" viewBox="0 0 72 72" fill="none" xmlns="http://www.w3.org/2000/svg">
<circle cx="36" cy="36" r="36" fill="#404040"/>
<path d="M30.4 22.6667H41.6C45.8667 22.6667 49.3334 26.1334 49.3334 30.4V41.6C49.3334 43.651 48.5186 45.618 47.0683 47.0683C45.618 48.5186 43.651 49.3334 41.6 49.3334H30.4C26.1334 49.3334 22.6667 45.8667 22.6667 41.6V30.4C22.6667 28.349 23.4814 26.382 24.9317 24.9317C26.382 23.4814 28.349 22.6667 30.4 22.6667ZM30.1334 25.3334C28.8603 25.3334 27.6394 25.8391 26.7392 26.7392C25.8391 27.6394 25.3334 28.8603 25.3334 30.1334V41.8667C25.3334 44.52 27.48 46.6667 30.1334 46.6667H41.8667C43.1397 46.6667 44.3606 46.161 45.2608 45.2608C46.161 44.3606 46.6667 43.1397 46.6667 41.8667V30.1334C46.6667 27.48 44.52 25.3334 41.8667 25.3334H30.1334ZM43 27.3334C43.442 27.3334 43.866 27.5089 44.1785 27.8215C44.4911 28.1341 44.6667 28.558 44.6667 29C44.6667 29.442 44.4911 29.866 44.1785 30.1785C43.866 30.4911 43.442 30.6667 43 30.6667C42.558 30.6667 42.1341 30.4911 41.8215 30.1785C41.5089 29.866 41.3334 29.442 41.3334 29C41.3334 28.558 41.5089 28.1341 41.8215 27.8215C42.1341 27.5089 42.558 27.3334 43 27.3334ZM36 29.3334C37.7681 29.3334 39.4638 30.0357 40.7141 31.286C41.9643 32.5362 42.6667 34.2319 42.6667 36C42.6667 37.7681 41.9643 39.4638 40.7141 40.7141C39.4638 41.9643 37.7681 42.6667 36 42.6667C34.2319 42.6667 32.5362 41.9643 31.286 40.7141C30.0357 39.4638 29.3334 37.7681 29.3334 36C29.3334 34.2319 30.0357 32.5362 31.286 31.286C32.5362 30.0357 34.2319 29.3334 36 29.3334ZM36 32C34.9392 32 33.9217 32.4214 33.1716 33.1716C32.4214 33.9217 32 34.9392 32 36C32 37.0609 32.4214 38.0783 33.1716 38.8284C33.9217 39.5786 34.9392 40 36 40C37.0609 40 38.0783 39.5786 38.8284 38.8284C39.5786 38.0783 40 37.0609 40 36C40 34.9392 39.5786 33.9217 38.8284 33.1716C38.0783 32.4214 37.0609 32 36 32Z" fill="#16FF73"/>
</svg>
