<svg width="72" height="72" viewBox="0 0 72 72" fill="none" xmlns="http://www.w3.org/2000/svg">
<circle cx="36" cy="36" r="36" fill="#404040"/>
<g clip-path="url(#clip0_3_46)">
<path d="M28.42 28.2347C28.0867 27.384 28.1 26.412 28.248 25.5227C29.2669 25.828 30.2239 26.3109 31.0747 26.9493C31.448 27.2347 31.9374 27.3267 32.3934 27.1893C33.5635 26.8392 34.7787 26.6631 36 26.6667C37.2814 26.6667 38.4987 26.8533 39.604 27.188C40.06 27.3267 40.5494 27.2333 40.9214 26.948C41.7718 26.3097 42.7282 25.8268 43.7467 25.5213C43.8947 26.4107 43.9067 27.3827 43.576 28.232C43.376 28.744 43.476 29.3333 43.8534 29.752C44.8187 30.8227 45.3334 32.0533 45.3334 33.3333C45.3334 36.152 42.7067 38.916 38.488 39.7573C37.432 39.968 37.02 41.2973 37.828 42.0587C38.3467 42.5467 38.6667 43.2347 38.6667 44V48C38.6667 48.3536 38.8072 48.6927 39.0572 48.9428C39.3073 49.1928 39.6464 49.3333 40 49.3333C40.3536 49.3333 40.6928 49.1928 40.9428 48.9428C41.1929 48.6927 41.3334 48.3536 41.3334 48V44C41.3334 43.24 41.1734 42.5173 40.888 41.8627C44.9107 40.4667 48 37.324 48 33.3333C48 31.5373 47.3547 29.8867 46.284 28.504C46.564 27.4107 46.5387 26.3093 46.432 25.464C46.3374 24.7067 46.2054 23.7147 45.672 23.1227C44.8787 22.244 43.5654 22.7613 42.632 23.08C41.6308 23.4188 40.6783 23.8872 39.7987 24.4733C38.5574 24.1565 37.2811 23.9975 36 24C34.6747 24 33.396 24.1667 32.1987 24.4747C31.3191 23.8885 30.3666 23.4201 29.3654 23.0813C28.432 22.7613 27.1174 22.244 26.324 23.1227C25.78 23.7253 25.6667 24.6387 25.5694 25.4147L25.5627 25.4653C25.456 26.312 25.432 27.4147 25.712 28.5093C24.6454 29.8907 24 31.5387 24 33.3333C24 37.3227 27.0894 40.4667 31.112 41.8627C30.8209 42.5284 30.6693 43.2467 30.6667 43.9733L30.4427 44.0187C29.4867 44.1507 28.8747 44.032 28.4587 43.856C27.4454 43.4267 26.9227 42.3453 26.2854 41.5187C25.888 41.0053 25.3094 40.364 24.4214 40.068C24.2552 40.0127 24.0798 39.9906 23.9051 40.0031C23.7304 40.0155 23.5598 40.0623 23.4032 40.1407C23.0869 40.2989 22.8464 40.5764 22.7347 40.912C22.6229 41.2476 22.6491 41.6138 22.8074 41.9301C22.9656 42.2464 23.2431 42.4869 23.5787 42.5987C24.3227 42.8467 24.8374 44.1213 25.3094 44.6867C25.8067 45.284 26.468 45.908 27.416 46.3107C28.3254 46.6973 29.3934 46.8347 30.6667 46.6787V48C30.6667 48.3536 30.8072 48.6927 31.0572 48.9428C31.3073 49.1928 31.6464 49.3333 32 49.3333C32.3536 49.3333 32.6928 49.1928 32.9428 48.9428C33.1929 48.6927 33.3334 48.3536 33.3334 48V44C33.3334 43.2347 33.6534 42.5467 34.172 42.0587C34.9814 41.296 34.568 39.968 33.512 39.7573C29.292 38.916 26.6667 36.152 26.6667 33.3333C26.6667 32.056 27.18 30.8253 28.144 29.7547C28.5214 29.336 28.62 28.7467 28.42 28.2347Z" fill="#16FF73"/>
</g>
<defs>
<clipPath id="clip0_3_46">
<rect width="32" height="32" fill="white" transform="translate(20 20)"/>
</clipPath>
</defs>
</svg>
