<?xml version="1.0" encoding="UTF-8"?><svg fill="none" viewBox="0 0 72 72" xmlns="http://www.w3.org/2000/svg"><circle cx="36" cy="36" r="36" fill="#404040"/><g clip-path="url(#a)"><path d="m28.42 28.235c-0.3333-0.8507-0.32-1.8227-0.172-2.712 1.0189 0.3053 1.9759 0.7882 2.8267 1.4266 0.3733 0.2854 0.8627 0.3774 1.3187 0.24 1.1701-0.3501 2.3853-0.5262 3.6066-0.5226 1.2814 0 2.4987 0.1866 3.604 0.5213 0.456 0.1387 0.9454 0.0453 1.3174-0.24 0.8504-0.6383 1.8068-1.1212 2.8253-1.4267 0.148 0.8894 0.16 1.8614-0.1707 2.7107-0.2 0.512-0.1 1.1013 0.2774 1.52 0.9653 1.0707 1.48 2.3013 1.48 3.5813 0 2.8187-2.6267 5.5827-6.8454 6.424-1.056 0.2107-1.468 1.54-0.66 2.3014 0.5187 0.488 0.8387 1.176 0.8387 1.9413v4c0 0.3536 0.1405 0.6927 0.3905 0.9428 0.2501 0.25 0.5892 0.3905 0.9428 0.3905s0.6928-0.1405 0.9428-0.3905c0.2501-0.2501 0.3906-0.5892 0.3906-0.9428v-4c0-0.76-0.16-1.4827-0.4454-2.1373 4.0227-1.396 7.112-4.5387 7.112-8.5294 0-1.796-0.6453-3.4466-1.716-4.8293 0.28-1.0933 0.2547-2.1947 0.148-3.04-0.0946-0.7573-0.2266-1.7493-0.76-2.3413-0.7933-0.8787-2.1066-0.3614-3.04-0.0427-1.0012 0.3388-1.9537 0.8072-2.8333 1.3933-1.2413-0.3168-2.5176-0.4758-3.7987-0.4733-1.3253 0-2.604 0.1667-3.8013 0.4747-0.8796-0.5862-1.8321-1.0546-2.8333-1.3934-0.9334-0.32-2.248-0.8373-3.0414 0.0414-0.544 0.6026-0.6573 1.516-0.7546 2.292l-0.0067 0.0506c-0.1067 0.8467-0.1307 1.9494 0.1493 3.044-1.0666 1.3814-1.712 3.0294-1.712 4.824 0 3.9894 3.0894 7.1334 7.112 8.5294-0.2911 0.6657-0.4427 1.384-0.4453 2.1106l-0.224 0.0454c-0.956 0.132-1.568 0.0133-1.984-0.1627-1.0133-0.4293-1.536-1.5107-2.1733-2.3373-0.3974-0.5134-0.976-1.1547-1.864-1.4507-0.1662-0.0553-0.3416-0.0774-0.5163-0.0649-0.1747 0.0124-0.3453 0.0592-0.5019 0.1376-0.3163 0.1582-0.5568 0.4357-0.6685 0.7713-0.1118 0.3356-0.0856 0.7018 0.0727 1.0181 0.1582 0.3163 0.4357 0.5568 0.7713 0.6686 0.744 0.248 1.2587 1.5226 1.7307 2.088 0.4973 0.5973 1.1586 1.2213 2.1066 1.624 0.9094 0.3866 1.9774 0.524 3.2507 0.368v1.3213c0 0.3536 0.1405 0.6927 0.3905 0.9428 0.2501 0.25 0.5892 0.3905 0.9428 0.3905s0.6928-0.1405 0.9428-0.3905c0.2501-0.2501 0.3906-0.5892 0.3906-0.9428v-4c0-0.7653 0.32-1.4533 0.8386-1.9413 0.8094-0.7627 0.396-2.0907-0.66-2.3014-4.22-0.8413-6.8453-3.6053-6.8453-6.424 0-1.2773 0.5133-2.508 1.4773-3.5786 0.3774-0.4187 0.476-1.008 0.276-1.52z" fill="#16FF73"/></g><defs><clipPath id="a"><rect transform="translate(20 20)" width="32" height="32" fill="#fff"/></clipPath></defs></svg>
