<?xml version="1.0" encoding="UTF-8"?><svg viewBox="0 0 72 72" xmlns="http://www.w3.org/2000/svg"><circle cx="36" cy="36" r="36" fill="#404040"/><path d="m30.4 22.667h11.2c4.2667 0 7.7334 3.4667 7.7334 7.7333v11.2c0 2.051-0.8148 4.018-2.2651 5.4683s-3.4173 2.2651-5.4683 2.2651h-11.2c-4.2666 0-7.7333-3.4667-7.7333-7.7334v-11.2c0-2.051 0.8147-4.018 2.265-5.4683s3.4173-2.265 5.4683-2.265zm-0.2666 2.6667c-1.2731 0-2.494 0.5057-3.3942 1.4058-0.9001 0.9002-1.4058 2.1211-1.4058 3.3942v11.733c0 2.6533 2.1466 4.8 4.8 4.8h11.733c1.273 0 2.4939-0.5057 3.3941-1.4059s1.4059-2.1211 1.4059-3.3941v-11.733c0-2.6534-2.1467-4.8-4.8-4.8h-11.733zm12.867 2c0.442 0 0.866 0.1755 1.1785 0.4881 0.3126 0.3126 0.4882 0.7365 0.4882 1.1785s-0.1756 0.866-0.4882 1.1785c-0.3125 0.3126-0.7365 0.4882-1.1785 0.4882s-0.8659-0.1756-1.1785-0.4882c-0.3126-0.3125-0.4881-0.7365-0.4881-1.1785s0.1755-0.8659 0.4881-1.1785 0.7365-0.4881 1.1785-0.4881zm-7 2c1.7681 0 3.4638 0.7023 4.7141 1.9526 1.2502 1.2502 1.9526 2.9459 1.9526 4.714s-0.7024 3.4638-1.9526 4.7141c-1.2503 1.2502-2.946 1.9526-4.7141 1.9526s-3.4638-0.7024-4.714-1.9526c-1.2503-1.2503-1.9526-2.946-1.9526-4.7141s0.7023-3.4638 1.9526-4.714c1.2502-1.2503 2.9459-1.9526 4.714-1.9526zm0 2.6666c-1.0608 0-2.0783 0.4214-2.8284 1.1716-0.7502 0.7501-1.1716 1.7676-1.1716 2.8284 0 1.0609 0.4214 2.0783 1.1716 2.8284 0.7501 0.7502 1.7676 1.1716 2.8284 1.1716 1.0609 0 2.0783-0.4214 2.8284-1.1716 0.7502-0.7501 1.1716-1.7675 1.1716-2.8284 0-1.0608-0.4214-2.0783-1.1716-2.8284-0.7501-0.7502-1.7675-1.1716-2.8284-1.1716z" fill="#16FF73"/></svg>