<?xml version="1.0" encoding="UTF-8"?><svg viewBox="0 0 72 72" xmlns="http://www.w3.org/2000/svg"><circle cx="36" cy="36" r="36" fill="#404040"/><path d="m26.333 22.5c-0.7514 0-1.4721 0.2985-2.0034 0.8299-0.5314 0.5313-0.8299 1.252-0.8299 2.0034 0 0.7515 0.2985 1.4721 0.8299 2.0035 0.5313 0.5314 1.252 0.8299 2.0034 0.8299 0.7515 0 1.4721-0.2985 2.0035-0.8299s0.8299-1.252 0.8299-2.0035c0-0.7514-0.2985-1.4721-0.8299-2.0034-0.5314-0.5314-1.252-0.8299-2.0035-0.8299zm-2.6666 8c-0.0442 0-0.0866 0.0176-0.1179 0.0488-0.0312 0.0313-0.0488 0.0737-0.0488 0.1179v17.333c0 0.092 0.0747 0.1667 0.1667 0.1667h5.3333c0.0442 0 0.0866-0.0176 0.1179-0.0489 0.0312-0.0312 0.0488-0.0736 0.0488-0.1178v-17.333c0-0.0442-0.0176-0.0866-0.0488-0.1179-0.0313-0.0312-0.0737-0.0488-0.1179-0.0488h-5.3333zm8.6666 0c-0.0442 0-0.0866 0.0176-0.1178 0.0488-0.0313 0.0313-0.0488 0.0737-0.0488 0.1179v17.333c0 0.092 0.0746 0.1667 0.1666 0.1667h5.3334c0.0442 0 0.0866-0.0176 0.1178-0.0489 0.0313-0.0312 0.0488-0.0736 0.0488-0.1178v-9.3333c0-0.6631 0.2634-1.299 0.7323-1.7678 0.4688-0.4688 1.1047-0.7322 1.7677-0.7322 0.6631 0 1.299 0.2634 1.7678 0.7322s0.7322 1.1047 0.7322 1.7678v9.3333c0 0.092 0.0747 0.1667 0.1667 0.1667h5.3333c0.0442 0 0.0866-0.0176 0.1179-0.0489 0.0312-0.0312 0.0488-0.0736 0.0488-0.1178v-11.493c0-3.236-2.8133-5.7667-6.0333-5.4747-0.9963 0.0907-1.9722 0.3373-2.892 0.7307l-1.7414 0.7466v-1.8426c0-0.0442-0.0175-0.0866-0.0488-0.1179-0.0312-0.0312-0.0736-0.0488-0.1178-0.0488h-5.3334z" fill="#16FF73"/></svg>
